# xmcd
#
# Track frame offsets: 
#        150
#        18984
#        36185
#        46290
#        61007
#        81039
#        96113
#        107624
#        123842
#        142133
#        156444
#        170817
#        183267
#        196331
#
# Disc length: 2711 seconds
#
# Revision: 0
# Processed by: cddbd v1.5.2PL0 Copyright (c) Steve Scherf et al.
# Submitted via: ExactAudioCopy v0.99pb5
#
DISCID=b70a950e
DTITLE=The Road Brothers - Old 'N' Dusty Road
DYEAR=2009
DGENRE=Country
TTITLE0=Old 'N' Dusty Road
TTITLE1=Wayfaring Stranger
TTITLE2=I Ain't Got No Home
TTITLE3=Little Girl
TTITLE4=Redemption Song
TTITLE5=Roll Down The Line
TTITLE6=Wreck Of The Old '97
TTITLE7=Long Time Ago
TTITLE8=Oldtime Medley: Sally In The Garden, Needle Case, Soldiers Joy
TTITLE9=Miner Song
TTITLE10=I'm So Lonesome I Could Cry
TTITLE11=I Saw The Light
TTITLE12=I Don't Reckon It 'll Happen Again
TTITLE13=Reprise
EXTD=
EXTT0=
EXTT1=
EXTT2=
EXTT3=
EXTT4=
EXTT5=
EXTT6=
EXTT7=
EXTT8=
EXTT9=
EXTT10=
EXTT11=
EXTT12=
EXTT13=
PLAYORDER=
